<?xml version="1.0" standalone="no"?>
<!DOCTYPE svg PUBLIC "-//W3C//DTD SVG 20010904//EN"
 "http://www.w3.org/TR/2001/REC-SVG-20010904/DTD/svg10.dtd">
<svg version="1.0" xmlns="http://www.w3.org/2000/svg"
 width="384.000000pt" height="384.000000pt" viewBox="0 0 384.000000 384.000000"
 preserveAspectRatio="xMidYMid meet">
<metadata>
Created by potrace 1.11, written by Peter Selinger 2001-2013
</metadata>
<g transform="translate(0.000000,384.000000) scale(0.100000,-0.100000)"
fill="#000000" stroke="none">
<path d="M265 3826 c-108 -34 -186 -102 -232 -201 l-28 -60 0 -1645 0 -1645
28 -60 c36 -78 104 -146 181 -182 l61 -28 1645 0 1645 0 61 28 c77 36 145 104
181 182 l28 60 0 1645 0 1645 -28 61 c-36 77 -104 145 -182 181 l-60 28 -1630
2 c-1297 1 -1638 -1 -1670 -11z m1578 -585 c163 -91 297 -168 297 -173 0 -4
-101 -8 -225 -8 l-224 0 -3 -1107 -3 -1108 -26 -66 c-48 -123 -152 -244 -283
-327 -243 -154 -613 -109 -842 103 -215 199 -227 579 -25 832 127 159 420 248
651 199 36 -8 106 -32 155 -55 l90 -40 3 994 2 994 68 -37 c37 -20 201 -111
365 -201z m557 -1321 l0 -1080 -90 0 -90 0 0 525 0 525 -120 0 -120 0 0 -525
0 -525 -90 0 -90 0 0 1080 0 1080 300 0 300 0 0 -1080z m360 525 l0 -555 -40
0 -40 0 0 -525 0 -525 -80 0 -80 0 0 1080 0 1080 120 0 120 0 0 -555z m300 1
l0 -555 -32 -3 -33 -3 -3 -522 -2 -523 -50 0 -50 0 0 525 0 525 -35 0 -35 0 0
555 0 555 120 0 120 0 0 -554z m300 -526 l0 -1080 -80 0 -80 0 -2 528 -3 527
-37 3 -38 3 0 544 c0 509 1 544 18 548 9 3 63 5 120 6 l102 1 0 -1080z"/>
<path d="M736 1393 c-125 -67 -194 -155 -231 -298 -54 -205 -6 -424 122 -551
30 -31 57 -53 60 -50 3 2 -11 33 -30 68 -82 147 -106 255 -87 401 25 190 77
305 183 403 38 35 66 64 61 64 -5 0 -40 -17 -78 -37z"/>
<path d="M2040 2460 l0 -300 60 0 60 0 0 300 0 300 -60 0 -60 0 0 -300z"/>
</g>
</svg>
